<mxfile host="app.diagrams.net" agent="Mozilla/5.0 (Macintosh; Intel Mac OS X 10_15_7) AppleWebKit/537.36 (KHTML, like Gecko) Chrome/131.0.0.0 Safari/537.36" version="26.0.3" pages="2">
  <diagram name="exec" id="WvoBJg3-roowfQU8_AyE">
    <mxGraphModel dx="3774" dy="2347" grid="1" gridSize="10" guides="1" tooltips="1" connect="1" arrows="1" fold="1" page="1" pageScale="1" pageWidth="827" pageHeight="1169" math="0" shadow="0">
      <root>
        <mxCell id="0" />
        <mxCell id="1" parent="0" />
        <mxCell id="_bWcMdWAkJLCxljyBQFa-5" value="" style="edgeStyle=orthogonalEdgeStyle;rounded=0;orthogonalLoop=1;jettySize=auto;html=1;" edge="1" parent="1" source="_bWcMdWAkJLCxljyBQFa-3" target="_bWcMdWAkJLCxljyBQFa-4">
          <mxGeometry relative="1" as="geometry" />
        </mxCell>
        <mxCell id="_bWcMdWAkJLCxljyBQFa-3" value="Start" style="strokeWidth=2;html=1;shape=mxgraph.flowchart.start_1;whiteSpace=wrap;fillColor=#60a917;fontColor=#ffffff;strokeColor=#2D7600;" vertex="1" parent="1">
          <mxGeometry x="-500" y="80" width="100" height="60" as="geometry" />
        </mxCell>
        <mxCell id="_bWcMdWAkJLCxljyBQFa-7" value="" style="edgeStyle=orthogonalEdgeStyle;rounded=0;orthogonalLoop=1;jettySize=auto;html=1;" edge="1" parent="1" source="_bWcMdWAkJLCxljyBQFa-4" target="_bWcMdWAkJLCxljyBQFa-6">
          <mxGeometry relative="1" as="geometry" />
        </mxCell>
        <mxCell id="_bWcMdWAkJLCxljyBQFa-16" value="YES" style="edgeLabel;html=1;align=center;verticalAlign=middle;resizable=0;points=[];" vertex="1" connectable="0" parent="_bWcMdWAkJLCxljyBQFa-7">
          <mxGeometry x="-0.05" y="-1" relative="1" as="geometry">
            <mxPoint as="offset" />
          </mxGeometry>
        </mxCell>
        <mxCell id="_bWcMdWAkJLCxljyBQFa-18" value="" style="edgeStyle=orthogonalEdgeStyle;rounded=0;orthogonalLoop=1;jettySize=auto;html=1;" edge="1" parent="1" source="_bWcMdWAkJLCxljyBQFa-4" target="_bWcMdWAkJLCxljyBQFa-17">
          <mxGeometry relative="1" as="geometry" />
        </mxCell>
        <mxCell id="_bWcMdWAkJLCxljyBQFa-48" value="NO" style="edgeLabel;html=1;align=center;verticalAlign=middle;resizable=0;points=[];" vertex="1" connectable="0" parent="_bWcMdWAkJLCxljyBQFa-18">
          <mxGeometry x="-0.0912" y="2" relative="1" as="geometry">
            <mxPoint as="offset" />
          </mxGeometry>
        </mxCell>
        <mxCell id="_bWcMdWAkJLCxljyBQFa-4" value="Key starts with $" style="rhombus;whiteSpace=wrap;html=1;strokeWidth=2;" vertex="1" parent="1">
          <mxGeometry x="-490" y="210" width="80" height="80" as="geometry" />
        </mxCell>
        <mxCell id="_bWcMdWAkJLCxljyBQFa-11" style="edgeStyle=orthogonalEdgeStyle;rounded=0;orthogonalLoop=1;jettySize=auto;html=1;" edge="1" parent="1" source="_bWcMdWAkJLCxljyBQFa-6" target="_bWcMdWAkJLCxljyBQFa-10">
          <mxGeometry relative="1" as="geometry" />
        </mxCell>
        <mxCell id="_bWcMdWAkJLCxljyBQFa-14" style="edgeStyle=orthogonalEdgeStyle;rounded=0;orthogonalLoop=1;jettySize=auto;html=1;" edge="1" parent="1" source="_bWcMdWAkJLCxljyBQFa-6" target="_bWcMdWAkJLCxljyBQFa-13">
          <mxGeometry relative="1" as="geometry" />
        </mxCell>
        <mxCell id="_bWcMdWAkJLCxljyBQFa-15" value="NO" style="edgeLabel;html=1;align=center;verticalAlign=middle;resizable=0;points=[];" vertex="1" connectable="0" parent="_bWcMdWAkJLCxljyBQFa-14">
          <mxGeometry x="-0.8736" y="-3" relative="1" as="geometry">
            <mxPoint as="offset" />
          </mxGeometry>
        </mxCell>
        <mxCell id="_bWcMdWAkJLCxljyBQFa-44" style="edgeStyle=orthogonalEdgeStyle;rounded=0;orthogonalLoop=1;jettySize=auto;html=1;" edge="1" parent="1" source="_bWcMdWAkJLCxljyBQFa-6" target="_bWcMdWAkJLCxljyBQFa-43">
          <mxGeometry relative="1" as="geometry" />
        </mxCell>
        <mxCell id="_bWcMdWAkJLCxljyBQFa-45" value="YES" style="edgeLabel;html=1;align=center;verticalAlign=middle;resizable=0;points=[];" vertex="1" connectable="0" parent="_bWcMdWAkJLCxljyBQFa-44">
          <mxGeometry x="-0.1644" relative="1" as="geometry">
            <mxPoint as="offset" />
          </mxGeometry>
        </mxCell>
        <mxCell id="_bWcMdWAkJLCxljyBQFa-47" style="edgeStyle=orthogonalEdgeStyle;rounded=0;orthogonalLoop=1;jettySize=auto;html=1;" edge="1" parent="1">
          <mxGeometry relative="1" as="geometry">
            <mxPoint x="-610" y="321" as="sourcePoint" />
            <mxPoint x="-875.0000000000002" y="360" as="targetPoint" />
          </mxGeometry>
        </mxCell>
        <mxCell id="_bWcMdWAkJLCxljyBQFa-6" value="Is logical Operator?" style="rhombus;whiteSpace=wrap;html=1;strokeWidth=2;" vertex="1" parent="1">
          <mxGeometry x="-650" y="210" width="80" height="80" as="geometry" />
        </mxCell>
        <mxCell id="_bWcMdWAkJLCxljyBQFa-10" value="" style="points=[[0.145,0.145,0],[0.5,0,0],[0.855,0.145,0],[1,0.5,0],[0.855,0.855,0],[0.5,1,0],[0.145,0.855,0],[0,0.5,0]];shape=mxgraph.bpmn.event;html=1;verticalLabelPosition=bottom;labelBackgroundColor=#ffffff;verticalAlign=top;align=center;perimeter=ellipsePerimeter;outlineConnect=0;aspect=fixed;outline=end;symbol=error;fillColor=#e51400;fontColor=#ffffff;strokeColor=#B20000;" vertex="1" parent="1">
          <mxGeometry x="-635" y="110" width="50" height="50" as="geometry" />
        </mxCell>
        <mxCell id="_bWcMdWAkJLCxljyBQFa-12" value="Error" style="text;html=1;align=center;verticalAlign=middle;resizable=0;points=[];autosize=1;strokeColor=none;fillColor=none;" vertex="1" parent="1">
          <mxGeometry x="-610" y="160" width="50" height="30" as="geometry" />
        </mxCell>
        <mxCell id="_bWcMdWAkJLCxljyBQFa-13" value="Only logical operator is supported on root" style="strokeWidth=1;shadow=0;dashed=0;align=center;html=1;shape=mxgraph.mockup.text.stickyNote2;fontColor=#666666;mainText=;fontSize=17;whiteSpace=wrap;fillColor=#ffffcc;strokeColor=#F62E00;" vertex="1" parent="1">
          <mxGeometry x="-760" y="-30" width="117" height="110" as="geometry" />
        </mxCell>
        <mxCell id="_bWcMdWAkJLCxljyBQFa-26" style="edgeStyle=orthogonalEdgeStyle;rounded=0;orthogonalLoop=1;jettySize=auto;html=1;entryX=0.5;entryY=1;entryDx=0;entryDy=0;entryPerimeter=0;" edge="1" parent="1" source="_bWcMdWAkJLCxljyBQFa-17" target="_bWcMdWAkJLCxljyBQFa-19">
          <mxGeometry relative="1" as="geometry" />
        </mxCell>
        <mxCell id="_bWcMdWAkJLCxljyBQFa-27" value="YES" style="edgeLabel;html=1;align=center;verticalAlign=middle;resizable=0;points=[];" vertex="1" connectable="0" parent="_bWcMdWAkJLCxljyBQFa-26">
          <mxGeometry x="-0.6" y="-2" relative="1" as="geometry">
            <mxPoint x="-2" y="26" as="offset" />
          </mxGeometry>
        </mxCell>
        <mxCell id="_bWcMdWAkJLCxljyBQFa-29" style="edgeStyle=orthogonalEdgeStyle;rounded=0;orthogonalLoop=1;jettySize=auto;html=1;" edge="1" parent="1" source="_bWcMdWAkJLCxljyBQFa-17" target="_bWcMdWAkJLCxljyBQFa-28">
          <mxGeometry relative="1" as="geometry" />
        </mxCell>
        <mxCell id="_bWcMdWAkJLCxljyBQFa-31" value="" style="edgeStyle=orthogonalEdgeStyle;rounded=0;orthogonalLoop=1;jettySize=auto;html=1;" edge="1" parent="1" source="_bWcMdWAkJLCxljyBQFa-17" target="_bWcMdWAkJLCxljyBQFa-30">
          <mxGeometry relative="1" as="geometry" />
        </mxCell>
        <mxCell id="_bWcMdWAkJLCxljyBQFa-34" value="NO" style="edgeLabel;html=1;align=center;verticalAlign=middle;resizable=0;points=[];" vertex="1" connectable="0" parent="_bWcMdWAkJLCxljyBQFa-31">
          <mxGeometry x="-0.3231" y="2" relative="1" as="geometry">
            <mxPoint as="offset" />
          </mxGeometry>
        </mxCell>
        <mxCell id="_bWcMdWAkJLCxljyBQFa-17" value="Is Value Scaler?" style="rhombus;whiteSpace=wrap;html=1;strokeWidth=2;" vertex="1" parent="1">
          <mxGeometry x="-330" y="210" width="80" height="80" as="geometry" />
        </mxCell>
        <mxCell id="_bWcMdWAkJLCxljyBQFa-19" value="&lt;blockquote style=&quot;margin: 0 0 0 40px; border: none; padding: 0px;&quot;&gt;{&lt;div&gt;&amp;nbsp; ds.req.path: /hello&lt;/div&gt;&lt;div&gt;}&lt;/div&gt;&lt;div&gt;&lt;br&gt;&lt;/div&gt;&lt;/blockquote&gt;&lt;blockquote style=&quot;margin: 0 0 0 40px; border: none; padding: 0px;&quot;&gt;&lt;div&gt;Scaler values will be matched&amp;nbsp;&lt;/div&gt;&lt;div&gt;using $eq operator&lt;/div&gt;&lt;/blockquote&gt;&lt;div&gt;&lt;br&gt;&lt;/div&gt;" style="strokeWidth=1;shadow=0;dashed=0;align=left;html=1;shape=mxgraph.mockup.text.stickyNote2;fontColor=#666666;mainText=;fontSize=17;whiteSpace=wrap;fillColor=#ffffcc;strokeColor=#F62E00;" vertex="1" parent="1">
          <mxGeometry x="-500" y="-160" width="300" height="200" as="geometry" />
        </mxCell>
        <mxCell id="_bWcMdWAkJLCxljyBQFa-28" value="exec operator" style="shape=ellipse;html=1;dashed=0;whiteSpace=wrap;perimeter=ellipsePerimeter;fillColor=#0050ef;strokeColor=#001DBC;fontColor=#ffffff;" vertex="1" parent="1">
          <mxGeometry x="-280" y="50" width="90" height="80" as="geometry" />
        </mxCell>
        <mxCell id="_bWcMdWAkJLCxljyBQFa-37" value="" style="edgeStyle=orthogonalEdgeStyle;rounded=0;orthogonalLoop=1;jettySize=auto;html=1;" edge="1" parent="1" source="_bWcMdWAkJLCxljyBQFa-30" target="_bWcMdWAkJLCxljyBQFa-36">
          <mxGeometry relative="1" as="geometry" />
        </mxCell>
        <mxCell id="_bWcMdWAkJLCxljyBQFa-38" value="YES" style="edgeLabel;html=1;align=center;verticalAlign=middle;resizable=0;points=[];" vertex="1" connectable="0" parent="_bWcMdWAkJLCxljyBQFa-37">
          <mxGeometry x="-0.0889" relative="1" as="geometry">
            <mxPoint as="offset" />
          </mxGeometry>
        </mxCell>
        <mxCell id="_bWcMdWAkJLCxljyBQFa-42" style="edgeStyle=orthogonalEdgeStyle;rounded=0;orthogonalLoop=1;jettySize=auto;html=1;" edge="1" parent="1" source="_bWcMdWAkJLCxljyBQFa-30" target="_bWcMdWAkJLCxljyBQFa-41">
          <mxGeometry relative="1" as="geometry" />
        </mxCell>
        <mxCell id="_bWcMdWAkJLCxljyBQFa-30" value="Is value&amp;nbsp;&lt;div&gt;operator&amp;nbsp;&lt;/div&gt;&lt;div&gt;map?&lt;/div&gt;" style="rhombus;whiteSpace=wrap;html=1;strokeWidth=2;" vertex="1" parent="1">
          <mxGeometry x="-190" y="200" width="100" height="90" as="geometry" />
        </mxCell>
        <mxCell id="_bWcMdWAkJLCxljyBQFa-40" style="edgeStyle=orthogonalEdgeStyle;rounded=0;orthogonalLoop=1;jettySize=auto;html=1;" edge="1" parent="1" source="_bWcMdWAkJLCxljyBQFa-32" target="_bWcMdWAkJLCxljyBQFa-39">
          <mxGeometry relative="1" as="geometry" />
        </mxCell>
        <mxCell id="_bWcMdWAkJLCxljyBQFa-32" value="" style="points=[[0.145,0.145,0],[0.5,0,0],[0.855,0.145,0],[1,0.5,0],[0.855,0.855,0],[0.5,1,0],[0.145,0.855,0],[0,0.5,0]];shape=mxgraph.bpmn.event;html=1;verticalLabelPosition=bottom;labelBackgroundColor=#ffffff;verticalAlign=top;align=center;perimeter=ellipsePerimeter;outlineConnect=0;aspect=fixed;outline=end;symbol=error;fillColor=#e51400;fontColor=#ffffff;strokeColor=#B20000;" vertex="1" parent="1">
          <mxGeometry x="-165" y="360" width="50" height="50" as="geometry" />
        </mxCell>
        <mxCell id="_bWcMdWAkJLCxljyBQFa-33" style="edgeStyle=orthogonalEdgeStyle;rounded=0;orthogonalLoop=1;jettySize=auto;html=1;entryX=0.5;entryY=0;entryDx=0;entryDy=0;entryPerimeter=0;" edge="1" parent="1" source="_bWcMdWAkJLCxljyBQFa-30" target="_bWcMdWAkJLCxljyBQFa-32">
          <mxGeometry relative="1" as="geometry" />
        </mxCell>
        <mxCell id="_bWcMdWAkJLCxljyBQFa-35" value="NO" style="edgeLabel;html=1;align=center;verticalAlign=middle;resizable=0;points=[];" vertex="1" connectable="0" parent="_bWcMdWAkJLCxljyBQFa-33">
          <mxGeometry x="-0.0857" relative="1" as="geometry">
            <mxPoint as="offset" />
          </mxGeometry>
        </mxCell>
        <mxCell id="_bWcMdWAkJLCxljyBQFa-36" value="exec_omap" style="ellipse;whiteSpace=wrap;html=1;strokeWidth=2;fillColor=#0050ef;fontColor=#ffffff;strokeColor=#001DBC;" vertex="1" parent="1">
          <mxGeometry x="80" y="205" width="80" height="80" as="geometry" />
        </mxCell>
        <mxCell id="_bWcMdWAkJLCxljyBQFa-39" value="Invalid value fonud" style="strokeWidth=1;shadow=0;dashed=0;align=center;html=1;shape=mxgraph.mockup.text.stickyNote2;fontColor=#666666;mainText=;fontSize=17;whiteSpace=wrap;fillColor=#ffffcc;strokeColor=#F62E00;" vertex="1" parent="1">
          <mxGeometry x="-232" y="450" width="117" height="110" as="geometry" />
        </mxCell>
        <mxCell id="_bWcMdWAkJLCxljyBQFa-41" value="&lt;blockquote style=&quot;margin: 0 0 0 40px; border: none; padding: 0px;&quot;&gt;{&lt;div&gt;&amp;nbsp; &amp;nbsp;ds.req.path:&lt;/div&gt;&lt;div&gt;&amp;nbsp; &amp;nbsp; &amp;nbsp; &amp;nbsp;$starts_with: /pay&lt;/div&gt;&lt;div&gt;&amp;nbsp; &amp;nbsp; &amp;nbsp; &amp;nbsp;$contains: hello&lt;/div&gt;&lt;div&gt;}&lt;br&gt;&lt;br&gt;All operator within operator map will be matched using $and operator&lt;/div&gt;&lt;/blockquote&gt;" style="strokeWidth=1;shadow=0;dashed=0;align=left;html=1;shape=mxgraph.mockup.text.stickyNote2;fontColor=#666666;mainText=;fontSize=17;whiteSpace=wrap;fillColor=#ffffcc;strokeColor=#F62E00;" vertex="1" parent="1">
          <mxGeometry x="20" y="290" width="400" height="260" as="geometry" />
        </mxCell>
        <mxCell id="_bWcMdWAkJLCxljyBQFa-43" value="exec_logical" style="ellipse;whiteSpace=wrap;html=1;strokeWidth=2;fillColor=#0050ef;fontColor=#ffffff;strokeColor=#001DBC;" vertex="1" parent="1">
          <mxGeometry x="-650" y="340" width="80" height="80" as="geometry" />
        </mxCell>
        <mxCell id="JsFs07JvPSPU-kMYxgAn-1" value="&lt;blockquote style=&quot;margin: 0 0 0 40px; border: none; padding: 0px;&quot;&gt;{&lt;div&gt;&amp;nbsp;&lt;/div&gt;&lt;/blockquote&gt;&lt;blockquote style=&quot;margin: 0 0 0 40px; border: none; padding: 0px;&quot;&gt;&lt;span style=&quot;background-color: transparent; color: light-dark(rgb(102, 102, 102), rgb(149, 149, 149));&quot;&gt;&amp;nbsp; &amp;nbsp; &amp;nbsp; &amp;nbsp;$or:&amp;nbsp;&lt;/span&gt;&lt;div&gt;&lt;span style=&quot;white-space: pre;&quot;&gt;&#x9;&lt;/span&gt;&lt;span style=&quot;white-space: pre;&quot;&gt;&#x9;&lt;/span&gt;ds.req.path:&amp;nbsp;&lt;/div&gt;&lt;blockquote style=&quot;margin: 0 0 0 40px; border: none; padding: 0px;&quot;&gt;&lt;div&gt;&lt;blockquote style=&quot;margin: 0 0 0 40px; border: none; padding: 0px;&quot;&gt;&lt;div&gt;&amp;nbsp; &amp;nbsp; &amp;nbsp; &amp;nbsp;$starts_with: /pay&lt;/div&gt;&lt;/blockquote&gt;&lt;/div&gt;&lt;/blockquote&gt;&lt;blockquote style=&quot;margin: 0 0 0 40px; border: none; padding: 0px;&quot;&gt;&lt;div&gt;&lt;blockquote style=&quot;margin: 0 0 0 40px; border: none; padding: 0px;&quot;&gt;&lt;span style=&quot;background-color: transparent; color: light-dark(rgb(102, 102, 102), rgb(149, 149, 149));&quot;&gt;&amp;nbsp; &amp;nbsp; &amp;nbsp; &amp;nbsp;$contains: hello&lt;/span&gt;&lt;/blockquote&gt;&lt;/div&gt;&lt;/blockquote&gt;&lt;div&gt;&lt;blockquote style=&quot;margin: 0 0 0 40px; border: none; padding: 0px;&quot;&gt;&lt;span style=&quot;background-color: transparent; color: light-dark(rgb(102, 102, 102), rgb(149, 149, 149));&quot;&gt;$or:&lt;/span&gt;&lt;/blockquote&gt;&lt;/div&gt;&lt;div&gt;&lt;blockquote style=&quot;margin: 0 0 0 40px; border: none; padding: 0px;&quot;&gt;&lt;span style=&quot;background-color: transparent; color: light-dark(rgb(102, 102, 102), rgb(149, 149, 149));&quot;&gt;&lt;span style=&quot;white-space: pre;&quot;&gt;&#x9;&lt;/span&gt;ds.req.header.user-agent:&amp;nbsp;&lt;/span&gt;&lt;/blockquote&gt;&lt;/div&gt;&lt;div&gt;&lt;blockquote style=&quot;margin: 0 0 0 40px; border: none; padding: 0px;&quot;&gt;&lt;span style=&quot;background-color: transparent; color: light-dark(rgb(102, 102, 102), rgb(149, 149, 149)); white-space: pre;&quot;&gt;&#x9;&lt;span style=&quot;white-space: pre;&quot;&gt;&#x9;&lt;/span&gt;&lt;/span&gt;&lt;span style=&quot;background-color: transparent; color: light-dark(rgb(102, 102, 102), rgb(149, 149, 149));&quot;&gt;$matches: &#39;\w+\d+&#39;&lt;/span&gt;&lt;/blockquote&gt;&lt;/div&gt;&lt;div&gt;&lt;div&gt;&lt;span style=&quot;background-color: transparent; color: light-dark(rgb(102, 102, 102), rgb(149, 149, 149));&quot;&gt;}&lt;/span&gt;&lt;/div&gt;&lt;/div&gt;&lt;/blockquote&gt;&lt;div&gt;&lt;blockquote style=&quot;margin: 0 0 0 40px; border: none; padding: 0px;&quot;&gt;&lt;br&gt;All above 3 conditions must return true for the match, &lt;b&gt;&lt;i&gt;$and&lt;/i&gt;&lt;/b&gt; will be applied on root level&lt;br&gt;&lt;br&gt;&lt;/blockquote&gt;&lt;/div&gt;" style="strokeWidth=1;shadow=0;dashed=0;align=left;html=1;shape=mxgraph.mockup.text.stickyNote2;fontColor=#666666;mainText=;fontSize=17;whiteSpace=wrap;fillColor=#ffffcc;strokeColor=#F62E00;" vertex="1" parent="1">
          <mxGeometry x="-1170" y="340" width="430" height="350" as="geometry" />
        </mxCell>
      </root>
    </mxGraphModel>
  </diagram>
  <diagram id="94fScAYdTRFatTBRbtlG" name="exec_logical">
    <mxGraphModel dx="1004" dy="1727" grid="1" gridSize="10" guides="1" tooltips="1" connect="1" arrows="1" fold="1" page="1" pageScale="1" pageWidth="827" pageHeight="1169" math="0" shadow="0">
      <root>
        <mxCell id="0" />
        <mxCell id="1" parent="0" />
        <mxCell id="V5pXa-vR6__bQY0p2TUs-2" style="edgeStyle=orthogonalEdgeStyle;rounded=0;orthogonalLoop=1;jettySize=auto;html=1;entryX=0.5;entryY=0;entryDx=0;entryDy=0;" edge="1" parent="1" source="azP8WU1bnfLfYS0TbME8-1" target="V5pXa-vR6__bQY0p2TUs-1">
          <mxGeometry relative="1" as="geometry" />
        </mxCell>
        <mxCell id="azP8WU1bnfLfYS0TbME8-1" value="Start" style="strokeWidth=2;html=1;shape=mxgraph.flowchart.start_1;whiteSpace=wrap;fillColor=#60a917;fontColor=#ffffff;strokeColor=#2D7600;" vertex="1" parent="1">
          <mxGeometry x="360" y="150" width="100" height="60" as="geometry" />
        </mxCell>
        <mxCell id="OPcaEiC1JXLAbthEViqR-2" style="edgeStyle=orthogonalEdgeStyle;rounded=0;orthogonalLoop=1;jettySize=auto;html=1;" edge="1" parent="1" source="OPcaEiC1JXLAbthEViqR-1" target="azP8WU1bnfLfYS0TbME8-1">
          <mxGeometry relative="1" as="geometry" />
        </mxCell>
        <mxCell id="OPcaEiC1JXLAbthEViqR-1" value="&lt;blockquote style=&quot;margin: 0 0 0 40px; border: none; padding: 0px;&quot;&gt;{&lt;div&gt;&amp;nbsp;&lt;/div&gt;&lt;/blockquote&gt;&lt;blockquote style=&quot;margin: 0 0 0 40px; border: none; padding: 0px;&quot;&gt;&lt;span style=&quot;background-color: transparent; color: light-dark(rgb(102, 102, 102), rgb(149, 149, 149));&quot;&gt;&amp;nbsp; &amp;nbsp; &amp;nbsp; &amp;nbsp;$or:&amp;nbsp;&lt;/span&gt;&lt;div&gt;&lt;span style=&quot;white-space: pre;&quot;&gt;&#x9;&lt;/span&gt;&lt;span style=&quot;white-space: pre;&quot;&gt;&#x9;&lt;/span&gt;ds.req.path:&amp;nbsp;&lt;/div&gt;&lt;blockquote style=&quot;margin: 0 0 0 40px; border: none; padding: 0px;&quot;&gt;&lt;div&gt;&lt;blockquote style=&quot;margin: 0 0 0 40px; border: none; padding: 0px;&quot;&gt;&lt;div&gt;&amp;nbsp; &amp;nbsp; &amp;nbsp; &amp;nbsp;$starts_with: /pay&lt;/div&gt;&lt;/blockquote&gt;&lt;/div&gt;&lt;/blockquote&gt;&lt;blockquote style=&quot;margin: 0 0 0 40px; border: none; padding: 0px;&quot;&gt;&lt;div&gt;&lt;blockquote style=&quot;margin: 0 0 0 40px; border: none; padding: 0px;&quot;&gt;&lt;span style=&quot;background-color: transparent; color: light-dark(rgb(102, 102, 102), rgb(149, 149, 149));&quot;&gt;&amp;nbsp; &amp;nbsp; &amp;nbsp; &amp;nbsp;$contains: hello&lt;/span&gt;&lt;/blockquote&gt;&lt;/div&gt;&lt;/blockquote&gt;&lt;div&gt;&lt;blockquote style=&quot;margin: 0 0 0 40px; border: none; padding: 0px;&quot;&gt;&lt;span style=&quot;background-color: transparent; color: light-dark(rgb(102, 102, 102), rgb(149, 149, 149));&quot;&gt;$or:&lt;/span&gt;&lt;/blockquote&gt;&lt;/div&gt;&lt;div&gt;&lt;blockquote style=&quot;margin: 0 0 0 40px; border: none; padding: 0px;&quot;&gt;&lt;span style=&quot;background-color: transparent; color: light-dark(rgb(102, 102, 102), rgb(149, 149, 149));&quot;&gt;&lt;span style=&quot;white-space: pre;&quot;&gt;&#x9;&lt;/span&gt;ds.req.header.user-agent:&amp;nbsp;&lt;/span&gt;&lt;/blockquote&gt;&lt;/div&gt;&lt;div&gt;&lt;blockquote style=&quot;margin: 0 0 0 40px; border: none; padding: 0px;&quot;&gt;&lt;span style=&quot;background-color: transparent; color: light-dark(rgb(102, 102, 102), rgb(149, 149, 149)); white-space: pre;&quot;&gt;&#x9;&lt;span style=&quot;white-space: pre;&quot;&gt;&#x9;&lt;/span&gt;&lt;/span&gt;&lt;span style=&quot;background-color: transparent; color: light-dark(rgb(102, 102, 102), rgb(149, 149, 149));&quot;&gt;$matches: &#39;\w+\d+&#39;&lt;/span&gt;&lt;/blockquote&gt;&lt;span style=&quot;background-color: transparent; color: light-dark(rgb(102, 102, 102), rgb(149, 149, 149));&quot;&gt;}&lt;/span&gt;&lt;/div&gt;&lt;/blockquote&gt;&lt;div&gt;&lt;blockquote style=&quot;margin: 0 0 0 40px; border: none; padding: 0px;&quot;&gt;&lt;br&gt;All above 3 conditions must return true for the match, &lt;b&gt;&lt;i&gt;$and&lt;/i&gt;&lt;/b&gt; will be applied on root level&lt;br&gt;&lt;br&gt;&lt;div style=&quot;background-color: rgb(31, 31, 31); font-family: Menlo, Monaco, &amp;quot;Courier New&amp;quot;, monospace; font-size: 12px; line-height: 18px; white-space: pre; color: rgb(204, 204, 204);&quot;&gt;&lt;span style=&quot;color: light-dark(rgb(204, 204, 204), rgb(62, 62, 62));&quot;&gt;&lt;span style=&quot;color: rgb(220, 220, 170);&quot;&gt;exec_logical&lt;/span&gt;(&lt;/span&gt;&lt;font color=&quot;#9cdcfe&quot;&gt;query_map: Map, and: bool) -&amp;gt; bool&lt;/font&gt;&lt;font color=&quot;rgba(0, 0, 0, 0)&quot;&gt;) -&amp;gt; bool&lt;/font&gt;&lt;/div&gt;&lt;br&gt;&lt;/blockquote&gt;&lt;/div&gt;" style="strokeWidth=1;shadow=0;dashed=0;align=left;html=1;shape=mxgraph.mockup.text.stickyNote2;fontColor=#666666;mainText=;fontSize=17;whiteSpace=wrap;fillColor=#ffffcc;strokeColor=#F62E00;" vertex="1" parent="1">
          <mxGeometry x="50" y="-330" width="770" height="420" as="geometry" />
        </mxCell>
        <mxCell id="V5pXa-vR6__bQY0p2TUs-1" value="for each key in map" style="shape=ellipse;html=1;dashed=0;whiteSpace=wrap;perimeter=ellipsePerimeter;" vertex="1" parent="1">
          <mxGeometry x="360" y="290" width="100" height="50" as="geometry" />
        </mxCell>
      </root>
    </mxGraphModel>
  </diagram>
</mxfile>
